<svg xmlns="http://www.w3.org/2000/svg" xmlns:xlink="http://www.w3.org/1999/xlink" width="375" viewBox="0 0 375 375" height="375" version="1.0"><defs><clipPath id="a"><path d="M 256 179 L 324 179 L 324 247 L 256 247 Z M 256 179"/></clipPath><clipPath id="b"><path d="M 323.667969 213.296875 C 323.667969 214.394531 323.613281 215.488281 323.507812 216.578125 C 323.398438 217.671875 323.238281 218.753906 323.023438 219.828125 C 322.8125 220.902344 322.546875 221.964844 322.226562 223.015625 C 321.910156 224.0625 321.539062 225.09375 321.121094 226.109375 C 320.703125 227.121094 320.234375 228.109375 319.71875 229.078125 C 319.199219 230.042969 318.636719 230.984375 318.027344 231.894531 C 317.417969 232.804688 316.769531 233.683594 316.074219 234.53125 C 315.378906 235.378906 314.640625 236.191406 313.867188 236.96875 C 313.09375 237.742188 312.28125 238.476562 311.433594 239.171875 C 310.585938 239.867188 309.707031 240.519531 308.796875 241.128906 C 307.886719 241.738281 306.945312 242.300781 305.980469 242.816406 C 305.011719 243.335938 304.023438 243.804688 303.011719 244.222656 C 302 244.640625 300.96875 245.011719 299.917969 245.328125 C 298.871094 245.648438 297.808594 245.914062 296.734375 246.128906 C 295.660156 246.339844 294.578125 246.503906 293.484375 246.609375 C 292.394531 246.71875 291.300781 246.769531 290.207031 246.769531 C 289.109375 246.769531 288.015625 246.71875 286.925781 246.609375 C 285.835938 246.503906 284.753906 246.339844 283.675781 246.128906 C 282.601562 245.914062 281.539062 245.648438 280.492188 245.328125 C 279.445312 245.011719 278.414062 244.640625 277.398438 244.222656 C 276.386719 243.804688 275.398438 243.335938 274.433594 242.816406 C 273.464844 242.300781 272.527344 241.738281 271.613281 241.128906 C 270.703125 240.519531 269.824219 239.867188 268.976562 239.171875 C 268.128906 238.476562 267.320312 237.742188 266.542969 236.964844 C 265.769531 236.191406 265.035156 235.378906 264.339844 234.53125 C 263.644531 233.683594 262.992188 232.804688 262.382812 231.894531 C 261.773438 230.984375 261.210938 230.042969 260.695312 229.078125 C 260.179688 228.109375 259.710938 227.121094 259.289062 226.109375 C 258.871094 225.09375 258.503906 224.0625 258.183594 223.015625 C 257.867188 221.964844 257.601562 220.902344 257.386719 219.828125 C 257.171875 218.753906 257.011719 217.671875 256.90625 216.578125 C 256.796875 215.488281 256.742188 214.394531 256.742188 213.296875 C 256.742188 212.203125 256.796875 211.109375 256.90625 210.015625 C 257.011719 208.925781 257.171875 207.84375 257.386719 206.769531 C 257.601562 205.691406 257.867188 204.632812 258.183594 203.582031 C 258.503906 202.53125 258.871094 201.5 259.289062 200.488281 C 259.710938 199.476562 260.179688 198.488281 260.695312 197.519531 C 261.210938 196.554688 261.773438 195.613281 262.382812 194.703125 C 262.992188 193.789062 263.644531 192.910156 264.339844 192.0625 C 265.035156 191.214844 265.769531 190.40625 266.542969 189.628906 C 267.320312 188.855469 268.128906 188.121094 268.976562 187.425781 C 269.824219 186.726562 270.703125 186.078125 271.613281 185.46875 C 272.527344 184.859375 273.464844 184.296875 274.433594 183.777344 C 275.398438 183.261719 276.386719 182.792969 277.398438 182.375 C 278.414062 181.953125 279.445312 181.585938 280.492188 181.265625 C 281.539062 180.949219 282.601562 180.683594 283.675781 180.46875 C 284.753906 180.253906 285.835938 180.09375 286.925781 179.988281 C 288.015625 179.878906 289.109375 179.824219 290.207031 179.824219 C 291.300781 179.824219 292.394531 179.878906 293.484375 179.988281 C 294.578125 180.09375 295.660156 180.253906 296.734375 180.46875 C 297.808594 180.683594 298.871094 180.949219 299.917969 181.265625 C 300.96875 181.585938 302 181.953125 303.011719 182.375 C 304.023438 182.792969 305.011719 183.261719 305.980469 183.777344 C 306.945312 184.296875 307.886719 184.859375 308.796875 185.46875 C 309.707031 186.078125 310.585938 186.726562 311.433594 187.425781 C 312.28125 188.121094 313.09375 188.855469 313.867188 189.628906 C 314.640625 190.40625 315.378906 191.214844 316.074219 192.0625 C 316.769531 192.910156 317.417969 193.789062 318.027344 194.703125 C 318.636719 195.613281 319.199219 196.554688 319.71875 197.519531 C 320.234375 198.488281 320.703125 199.476562 321.121094 200.488281 C 321.539062 201.5 321.910156 202.53125 322.226562 203.582031 C 322.546875 204.632812 322.8125 205.691406 323.023438 206.769531 C 323.238281 207.84375 323.398438 208.925781 323.507812 210.015625 C 323.613281 211.109375 323.667969 212.203125 323.667969 213.296875 Z M 323.667969 213.296875"/></clipPath><clipPath id="d"><path d="M 44.28125 64 L 95 64 L 95 164 L 44.28125 164 Z M 44.28125 64"/></clipPath><clipPath id="e"><path d="M 91 60.097656 L 108 60.097656 L 108 76 L 91 76 Z M 91 60.097656"/></clipPath><clipPath id="f"><path d="M 107.582031 67.957031 C 107.582031 68.46875 107.535156 68.976562 107.433594 69.480469 C 107.332031 69.984375 107.183594 70.472656 106.988281 70.945312 C 106.792969 71.417969 106.554688 71.867188 106.269531 72.292969 C 105.984375 72.71875 105.660156 73.113281 105.296875 73.476562 C 104.933594 73.839844 104.539062 74.164062 104.113281 74.449219 C 103.6875 74.734375 103.238281 74.972656 102.765625 75.171875 C 102.292969 75.367188 101.804688 75.515625 101.300781 75.613281 C 100.796875 75.714844 100.289062 75.765625 99.777344 75.765625 C 99.265625 75.765625 98.757812 75.714844 98.253906 75.613281 C 97.753906 75.515625 97.265625 75.367188 96.789062 75.171875 C 96.316406 74.972656 95.867188 74.734375 95.441406 74.449219 C 95.015625 74.164062 94.621094 73.839844 94.257812 73.476562 C 93.894531 73.113281 93.574219 72.71875 93.289062 72.292969 C 93.003906 71.867188 92.761719 71.417969 92.566406 70.945312 C 92.371094 70.472656 92.222656 69.984375 92.121094 69.480469 C 92.023438 68.976562 91.972656 68.46875 91.972656 67.957031 C 91.972656 67.445312 92.023438 66.9375 92.121094 66.433594 C 92.222656 65.929688 92.371094 65.441406 92.566406 64.96875 C 92.761719 64.496094 93.003906 64.042969 93.289062 63.617188 C 93.574219 63.191406 93.894531 62.796875 94.257812 62.433594 C 94.621094 62.074219 95.015625 61.75 95.441406 61.464844 C 95.867188 61.179688 96.316406 60.9375 96.789062 60.742188 C 97.265625 60.546875 97.753906 60.398438 98.253906 60.296875 C 98.757812 60.199219 99.265625 60.148438 99.777344 60.148438 C 100.289062 60.148438 100.796875 60.199219 101.300781 60.296875 C 101.804688 60.398438 102.292969 60.546875 102.765625 60.742188 C 103.238281 60.9375 103.6875 61.179688 104.113281 61.464844 C 104.539062 61.75 104.933594 62.074219 105.296875 62.433594 C 105.660156 62.796875 105.984375 63.191406 106.269531 63.617188 C 106.554688 64.042969 106.792969 64.496094 106.988281 64.96875 C 107.183594 65.441406 107.332031 65.929688 107.433594 66.433594 C 107.535156 66.9375 107.582031 67.445312 107.582031 67.957031 Z M 107.582031 67.957031"/></clipPath><clipPath id="h"><path d="M 161 60.097656 L 178 60.097656 L 178 76 L 161 76 Z M 161 60.097656"/></clipPath><clipPath id="i"><path d="M 177.070312 67.957031 C 177.070312 68.46875 177.019531 68.976562 176.917969 69.480469 C 176.820312 69.984375 176.671875 70.472656 176.472656 70.945312 C 176.277344 71.417969 176.039062 71.867188 175.753906 72.292969 C 175.46875 72.71875 175.144531 73.113281 174.78125 73.476562 C 174.421875 73.839844 174.027344 74.164062 173.597656 74.449219 C 173.171875 74.734375 172.722656 74.972656 172.25 75.171875 C 171.777344 75.367188 171.289062 75.515625 170.785156 75.613281 C 170.28125 75.714844 169.773438 75.765625 169.261719 75.765625 C 168.75 75.765625 168.242188 75.714844 167.738281 75.613281 C 167.238281 75.515625 166.75 75.367188 166.277344 75.171875 C 165.800781 74.972656 165.351562 74.734375 164.925781 74.449219 C 164.5 74.164062 164.105469 73.839844 163.742188 73.476562 C 163.382812 73.113281 163.058594 72.71875 162.773438 72.292969 C 162.488281 71.867188 162.246094 71.417969 162.050781 70.945312 C 161.855469 70.472656 161.707031 69.984375 161.605469 69.480469 C 161.507812 68.976562 161.457031 68.46875 161.457031 67.957031 C 161.457031 67.445312 161.507812 66.9375 161.605469 66.433594 C 161.707031 65.929688 161.855469 65.441406 162.050781 64.96875 C 162.246094 64.496094 162.488281 64.042969 162.773438 63.617188 C 163.058594 63.191406 163.382812 62.796875 163.742188 62.433594 C 164.105469 62.074219 164.5 61.75 164.925781 61.464844 C 165.351562 61.179688 165.800781 60.9375 166.277344 60.742188 C 166.75 60.546875 167.238281 60.398438 167.738281 60.296875 C 168.242188 60.199219 168.75 60.148438 169.261719 60.148438 C 169.773438 60.148438 170.28125 60.199219 170.785156 60.296875 C 171.289062 60.398438 171.777344 60.546875 172.25 60.742188 C 172.722656 60.9375 173.171875 61.179688 173.597656 61.464844 C 174.027344 61.75 174.421875 62.074219 174.78125 62.433594 C 175.144531 62.796875 175.46875 63.191406 175.753906 63.617188 C 176.039062 64.042969 176.277344 64.496094 176.472656 64.96875 C 176.671875 65.441406 176.820312 65.929688 176.917969 66.433594 C 177.019531 66.9375 177.070312 67.445312 177.070312 67.957031 Z M 177.070312 67.957031"/></clipPath><clipPath id="k"><path d="M 131 220 L 295 220 L 295 321.097656 L 131 321.097656 Z M 131 220"/></clipPath><clipPath id="l"><path d="M 44.28125 134 L 165 134 L 165 183 L 44.28125 183 Z M 44.28125 134"/></clipPath><linearGradient x1="298.49" gradientTransform="matrix(1.21699 0 0 1.21735 -73.053 -69.674)" xmlns:xlink="http://www.w3.org/1999/xlink" y1="204.953" x2="298.49" gradientUnits="userSpaceOnUse" y2="259.945" xlink:type="simple" xlink:actuate="onLoad" id="c" xlink:show="other"><stop stop-color="#54C1DD" offset="0"/><stop stop-color="#53C1DD" offset=".016"/><stop stop-color="#53C1DD" offset=".031"/><stop stop-color="#52C1DC" offset=".047"/><stop stop-color="#51C1DC" offset=".063"/><stop stop-color="#50C0DC" offset=".078"/><stop stop-color="#50C0DB" offset=".094"/><stop stop-color="#4FC0DB" offset=".109"/><stop stop-color="#4EC0DB" offset=".125"/><stop stop-color="#4DC0DB" offset=".141"/><stop stop-color="#4DBFDA" offset=".156"/><stop stop-color="#4CBFDA" offset=".172"/><stop stop-color="#4BBFDA" offset=".188"/><stop stop-color="#4ABFD9" offset=".203"/><stop stop-color="#4ABFD9" offset=".219"/><stop stop-color="#49BFD9" offset=".234"/><stop stop-color="#48BED9" offset=".25"/><stop stop-color="#47BED8" offset=".266"/><stop stop-color="#47BED8" offset=".281"/><stop stop-color="#46BED8" offset=".297"/><stop stop-color="#45BED7" offset=".313"/><stop stop-color="#44BDD7" offset=".328"/><stop stop-color="#44BDD7" offset=".344"/><stop stop-color="#43BDD7" offset=".359"/><stop stop-color="#42BDD6" offset=".375"/><stop stop-color="#41BDD6" offset=".391"/><stop stop-color="#41BCD6" offset=".406"/><stop stop-color="#40BCD5" offset=".422"/><stop stop-color="#3FBCD5" offset=".438"/><stop stop-color="#3FBCD5" offset=".453"/><stop stop-color="#3EBCD5" offset=".469"/><stop stop-color="#3DBCD4" offset=".484"/><stop stop-color="#3CBBD4" offset=".5"/><stop stop-color="#3CBBD4" offset=".516"/><stop stop-color="#3BBBD3" offset=".531"/><stop stop-color="#3ABBD3" offset=".547"/><stop stop-color="#39BBD3" offset=".563"/><stop stop-color="#39BAD3" offset=".578"/><stop stop-color="#38BAD2" offset=".594"/><stop stop-color="#37BAD2" offset=".609"/><stop stop-color="#36BAD2" offset=".625"/><stop stop-color="#36BAD1" offset=".641"/><stop stop-color="#35B9D1" offset=".656"/><stop stop-color="#34B9D1" offset=".672"/><stop stop-color="#33B9D1" offset=".688"/><stop stop-color="#33B9D0" offset=".703"/><stop stop-color="#32B9D0" offset=".719"/><stop stop-color="#31B8D0" offset=".734"/><stop stop-color="#30B8CF" offset=".75"/><stop stop-color="#30B8CF" offset=".766"/><stop stop-color="#2FB8CF" offset=".781"/><stop stop-color="#2EB8CF" offset=".797"/><stop stop-color="#2DB8CE" offset=".813"/><stop stop-color="#2DB7CE" offset=".828"/><stop stop-color="#2CB7CE" offset=".844"/><stop stop-color="#2BB7CD" offset=".859"/><stop stop-color="#2AB7CD" offset=".875"/><stop stop-color="#2AB7CD" offset=".891"/><stop stop-color="#29B6CD" offset=".906"/><stop stop-color="#28B6CC" offset=".922"/><stop stop-color="#27B6CC" offset=".938"/><stop stop-color="#27B6CC" offset=".953"/><stop stop-color="#26B6CB" offset=".969"/><stop stop-color="#25B5CB" offset=".984"/><stop stop-color="#24B5CB" offset="1"/></linearGradient><linearGradient x1="142.015" gradientTransform="matrix(1.21699 0 0 1.21735 -73.053 -69.674)" xmlns:xlink="http://www.w3.org/1999/xlink" y1="106.643" x2="142.015" gradientUnits="userSpaceOnUse" y2="119.471" xlink:type="simple" xlink:actuate="onLoad" id="g" xlink:show="other"><stop stop-color="#66C6E4" offset="0"/><stop stop-color="#66C6E4" offset=".008"/><stop stop-color="#65C6E4" offset=".016"/><stop stop-color="#64C5E3" offset=".023"/><stop stop-color="#63C5E3" offset=".031"/><stop stop-color="#62C5E3" offset=".039"/><stop stop-color="#62C5E2" offset=".047"/><stop stop-color="#61C5E2" offset=".055"/><stop stop-color="#60C4E2" offset=".063"/><stop stop-color="#5FC4E1" offset=".07"/><stop stop-color="#5EC4E1" offset=".078"/><stop stop-color="#5EC4E1" offset=".086"/><stop stop-color="#5DC4E0" offset=".094"/><stop stop-color="#5CC3E0" offset=".102"/><stop stop-color="#5BC3E0" offset=".109"/><stop stop-color="#5AC3E0" offset=".117"/><stop stop-color="#5AC3DF" offset=".125"/><stop stop-color="#59C3DF" offset=".133"/><stop stop-color="#58C2DF" offset=".141"/><stop stop-color="#57C2DE" offset=".148"/><stop stop-color="#56C2DE" offset=".156"/><stop stop-color="#56C2DE" offset=".164"/><stop stop-color="#55C2DD" offset=".172"/><stop stop-color="#54C1DD" offset=".18"/><stop stop-color="#53C1DD" offset=".188"/><stop stop-color="#52C1DD" offset=".195"/><stop stop-color="#52C1DC" offset=".203"/><stop stop-color="#51C1DC" offset=".211"/><stop stop-color="#50C0DC" offset=".219"/><stop stop-color="#4FC0DB" offset=".227"/><stop stop-color="#4EC0DB" offset=".234"/><stop stop-color="#4EC0DB" offset=".242"/><stop stop-color="#4DC0DA" offset=".25"/><stop stop-color="#4CBFDA" offset=".258"/><stop stop-color="#4BBFDA" offset=".266"/><stop stop-color="#4BBFD9" offset=".273"/><stop stop-color="#4ABFD9" offset=".281"/><stop stop-color="#49BFD9" offset=".289"/><stop stop-color="#48BED9" offset=".297"/><stop stop-color="#47BED8" offset=".305"/><stop stop-color="#47BED8" offset=".313"/><stop stop-color="#46BED8" offset=".32"/><stop stop-color="#45BED7" offset=".328"/><stop stop-color="#44BDD7" offset=".336"/><stop stop-color="#43BDD7" offset=".344"/><stop stop-color="#43BDD6" offset=".352"/><stop stop-color="#42BDD6" offset=".359"/><stop stop-color="#41BDD6" offset=".367"/><stop stop-color="#40BCD5" offset=".375"/><stop stop-color="#3FBCD5" offset=".383"/><stop stop-color="#3FBCD5" offset=".391"/><stop stop-color="#3EBCD5" offset=".398"/><stop stop-color="#3DBCD4" offset=".406"/><stop stop-color="#3CBBD4" offset=".414"/><stop stop-color="#3BBBD4" offset=".422"/><stop stop-color="#3BBBD3" offset=".43"/><stop stop-color="#3ABBD3" offset=".438"/><stop stop-color="#39BBD3" offset=".445"/><stop stop-color="#38BAD2" offset=".453"/><stop stop-color="#37BAD2" offset=".461"/><stop stop-color="#37BAD2" offset=".469"/><stop stop-color="#36BAD2" offset=".477"/><stop stop-color="#35BAD1" offset=".484"/><stop stop-color="#34B9D1" offset=".492"/><stop stop-color="#33B9D1" offset=".5"/><stop stop-color="#33B9D0" offset=".508"/><stop stop-color="#32B9D0" offset=".516"/><stop stop-color="#31B8D0" offset=".523"/><stop stop-color="#30B8CF" offset=".531"/><stop stop-color="#2FB8CF" offset=".539"/><stop stop-color="#2FB8CF" offset=".547"/><stop stop-color="#2EB8CE" offset=".555"/><stop stop-color="#2DB7CE" offset=".563"/><stop stop-color="#2CB7CE" offset=".57"/><stop stop-color="#2BB7CE" offset=".578"/><stop stop-color="#2BB7CD" offset=".586"/><stop stop-color="#2AB7CD" offset=".594"/><stop stop-color="#29B6CD" offset=".602"/><stop stop-color="#28B6CC" offset=".609"/><stop stop-color="#27B6CC" offset=".617"/><stop stop-color="#27B6CC" offset=".625"/><stop stop-color="#26B6CB" offset=".633"/><stop stop-color="#25B5CB" offset=".641"/><stop stop-color="#24B5CB" offset=".648"/><stop stop-color="#23B5CB" offset=".656"/><stop stop-color="#23B5CA" offset=".664"/><stop stop-color="#22B5CA" offset=".672"/><stop stop-color="#21B4CA" offset=".68"/><stop stop-color="#20B4C9" offset=".688"/><stop stop-color="#1FB4C9" offset=".695"/><stop stop-color="#1FB4C9" offset=".703"/><stop stop-color="#1EB4C8" offset=".711"/><stop stop-color="#1DB3C8" offset=".719"/><stop stop-color="#1CB3C8" offset=".727"/><stop stop-color="#1BB3C7" offset=".734"/><stop stop-color="#1BB3C7" offset=".742"/><stop stop-color="#1AB3C7" offset=".75"/><stop stop-color="#19B2C7" offset=".758"/><stop stop-color="#18B2C6" offset=".766"/><stop stop-color="#18B2C6" offset=".773"/><stop stop-color="#17B2C6" offset=".781"/><stop stop-color="#16B2C5" offset=".789"/><stop stop-color="#15B1C5" offset=".797"/><stop stop-color="#14B1C5" offset=".805"/><stop stop-color="#14B1C4" offset=".813"/><stop stop-color="#13B1C4" offset=".82"/><stop stop-color="#12B1C4" offset=".828"/><stop stop-color="#11B0C4" offset=".836"/><stop stop-color="#10B0C3" offset=".844"/><stop stop-color="#10B0C3" offset=".852"/><stop stop-color="#0FB0C3" offset=".859"/><stop stop-color="#0EB0C2" offset=".867"/><stop stop-color="#0DAFC2" offset=".875"/><stop stop-color="#0CAFC2" offset=".883"/><stop stop-color="#0CAFC1" offset=".891"/><stop stop-color="#0BAFC1" offset=".898"/><stop stop-color="#0AAFC1" offset=".906"/><stop stop-color="#09AEC0" offset=".914"/><stop stop-color="#08AEC0" offset=".922"/><stop stop-color="#08AEC0" offset=".93"/><stop stop-color="#07AEC0" offset=".938"/><stop stop-color="#06AEBF" offset=".945"/><stop stop-color="#05ADBF" offset=".953"/><stop stop-color="#04ADBF" offset=".961"/><stop stop-color="#04ADBE" offset=".969"/><stop stop-color="#03ADBE" offset=".977"/><stop stop-color="#02ADBE" offset=".984"/><stop stop-color="#01ACBD" offset=".992"/><stop stop-color="#00ACBD" offset="1"/></linearGradient><linearGradient x1="199.111" gradientTransform="matrix(1.21699 0 0 1.21735 -73.053 -69.674)" xmlns:xlink="http://www.w3.org/1999/xlink" y1="106.643" x2="199.111" gradientUnits="userSpaceOnUse" y2="119.471" xlink:type="simple" xlink:actuate="onLoad" id="j" xlink:show="other"><stop stop-color="#66C6E4" offset="0"/><stop stop-color="#66C6E4" offset=".008"/><stop stop-color="#65C6E4" offset=".016"/><stop stop-color="#64C5E3" offset=".023"/><stop stop-color="#63C5E3" offset=".031"/><stop stop-color="#62C5E3" offset=".039"/><stop stop-color="#62C5E2" offset=".047"/><stop stop-color="#61C5E2" offset=".055"/><stop stop-color="#60C4E2" offset=".063"/><stop stop-color="#5FC4E1" offset=".07"/><stop stop-color="#5EC4E1" offset=".078"/><stop stop-color="#5EC4E1" offset=".086"/><stop stop-color="#5DC4E0" offset=".094"/><stop stop-color="#5CC3E0" offset=".102"/><stop stop-color="#5BC3E0" offset=".109"/><stop stop-color="#5AC3E0" offset=".117"/><stop stop-color="#5AC3DF" offset=".125"/><stop stop-color="#59C3DF" offset=".133"/><stop stop-color="#58C2DF" offset=".141"/><stop stop-color="#57C2DE" offset=".148"/><stop stop-color="#56C2DE" offset=".156"/><stop stop-color="#56C2DE" offset=".164"/><stop stop-color="#55C2DD" offset=".172"/><stop stop-color="#54C1DD" offset=".18"/><stop stop-color="#53C1DD" offset=".188"/><stop stop-color="#52C1DD" offset=".195"/><stop stop-color="#52C1DC" offset=".203"/><stop stop-color="#51C1DC" offset=".211"/><stop stop-color="#50C0DC" offset=".219"/><stop stop-color="#4FC0DB" offset=".227"/><stop stop-color="#4EC0DB" offset=".234"/><stop stop-color="#4EC0DB" offset=".242"/><stop stop-color="#4DC0DA" offset=".25"/><stop stop-color="#4CBFDA" offset=".258"/><stop stop-color="#4BBFDA" offset=".266"/><stop stop-color="#4BBFD9" offset=".273"/><stop stop-color="#4ABFD9" offset=".281"/><stop stop-color="#49BFD9" offset=".289"/><stop stop-color="#48BED9" offset=".297"/><stop stop-color="#47BED8" offset=".305"/><stop stop-color="#47BED8" offset=".313"/><stop stop-color="#46BED8" offset=".32"/><stop stop-color="#45BED7" offset=".328"/><stop stop-color="#44BDD7" offset=".336"/><stop stop-color="#43BDD7" offset=".344"/><stop stop-color="#43BDD6" offset=".352"/><stop stop-color="#42BDD6" offset=".359"/><stop stop-color="#41BDD6" offset=".367"/><stop stop-color="#40BCD5" offset=".375"/><stop stop-color="#3FBCD5" offset=".383"/><stop stop-color="#3FBCD5" offset=".391"/><stop stop-color="#3EBCD5" offset=".398"/><stop stop-color="#3DBCD4" offset=".406"/><stop stop-color="#3CBBD4" offset=".414"/><stop stop-color="#3BBBD4" offset=".422"/><stop stop-color="#3BBBD3" offset=".43"/><stop stop-color="#3ABBD3" offset=".438"/><stop stop-color="#39BBD3" offset=".445"/><stop stop-color="#38BAD2" offset=".453"/><stop stop-color="#37BAD2" offset=".461"/><stop stop-color="#37BAD2" offset=".469"/><stop stop-color="#36BAD2" offset=".477"/><stop stop-color="#35BAD1" offset=".484"/><stop stop-color="#34B9D1" offset=".492"/><stop stop-color="#33B9D1" offset=".5"/><stop stop-color="#33B9D0" offset=".508"/><stop stop-color="#32B9D0" offset=".516"/><stop stop-color="#31B8D0" offset=".523"/><stop stop-color="#30B8CF" offset=".531"/><stop stop-color="#2FB8CF" offset=".539"/><stop stop-color="#2FB8CF" offset=".547"/><stop stop-color="#2EB8CE" offset=".555"/><stop stop-color="#2DB7CE" offset=".563"/><stop stop-color="#2CB7CE" offset=".57"/><stop stop-color="#2BB7CE" offset=".578"/><stop stop-color="#2BB7CD" offset=".586"/><stop stop-color="#2AB7CD" offset=".594"/><stop stop-color="#29B6CD" offset=".602"/><stop stop-color="#28B6CC" offset=".609"/><stop stop-color="#27B6CC" offset=".617"/><stop stop-color="#27B6CC" offset=".625"/><stop stop-color="#26B6CB" offset=".633"/><stop stop-color="#25B5CB" offset=".641"/><stop stop-color="#24B5CB" offset=".648"/><stop stop-color="#23B5CB" offset=".656"/><stop stop-color="#23B5CA" offset=".664"/><stop stop-color="#22B5CA" offset=".672"/><stop stop-color="#21B4CA" offset=".68"/><stop stop-color="#20B4C9" offset=".688"/><stop stop-color="#1FB4C9" offset=".695"/><stop stop-color="#1FB4C9" offset=".703"/><stop stop-color="#1EB4C8" offset=".711"/><stop stop-color="#1DB3C8" offset=".719"/><stop stop-color="#1CB3C8" offset=".727"/><stop stop-color="#1BB3C7" offset=".734"/><stop stop-color="#1BB3C7" offset=".742"/><stop stop-color="#1AB3C7" offset=".75"/><stop stop-color="#19B2C7" offset=".758"/><stop stop-color="#18B2C6" offset=".766"/><stop stop-color="#18B2C6" offset=".773"/><stop stop-color="#17B2C6" offset=".781"/><stop stop-color="#16B2C5" offset=".789"/><stop stop-color="#15B1C5" offset=".797"/><stop stop-color="#14B1C5" offset=".805"/><stop stop-color="#14B1C4" offset=".813"/><stop stop-color="#13B1C4" offset=".82"/><stop stop-color="#12B1C4" offset=".828"/><stop stop-color="#11B0C4" offset=".836"/><stop stop-color="#10B0C3" offset=".844"/><stop stop-color="#10B0C3" offset=".852"/><stop stop-color="#0FB0C3" offset=".859"/><stop stop-color="#0EB0C2" offset=".867"/><stop stop-color="#0DAFC2" offset=".875"/><stop stop-color="#0CAFC2" offset=".883"/><stop stop-color="#0CAFC1" offset=".891"/><stop stop-color="#0BAFC1" offset=".898"/><stop stop-color="#0AAFC1" offset=".906"/><stop stop-color="#09AEC0" offset=".914"/><stop stop-color="#08AEC0" offset=".922"/><stop stop-color="#08AEC0" offset=".93"/><stop stop-color="#07AEC0" offset=".938"/><stop stop-color="#06AEBF" offset=".945"/><stop stop-color="#05ADBF" offset=".953"/><stop stop-color="#04ADBF" offset=".961"/><stop stop-color="#04ADBE" offset=".969"/><stop stop-color="#03ADBE" offset=".977"/><stop stop-color="#02ADBE" offset=".984"/><stop stop-color="#01ACBD" offset=".992"/><stop stop-color="#00ACBD" offset="1"/></linearGradient></defs><g clip-path="url(#a)"><g clip-path="url(#b)"><path fill="url(#c)" d="M 256.742188 179.824219 L 256.742188 246.769531 L 323.667969 246.769531 L 323.667969 179.824219 Z M 256.742188 179.824219"/></g></g><path fill="#050607" d="M 134.746094 226.429688 C 134.222656 226.429688 133.699219 226.292969 133.226562 226.023438 C 131.796875 225.199219 97.878906 205.472656 72.246094 174.464844 C 71.171875 173.167969 71.355469 171.25 72.648438 170.179688 C 73.945312 169.109375 75.863281 169.292969 76.933594 170.582031 C 98.839844 197.085938 127.835938 215.617188 134.742188 219.835938 C 145.621094 213.175781 211.285156 170.910156 218.1875 117.550781 C 218.570312 115.222656 218.757812 112.984375 218.757812 110.796875 C 218.757812 88.464844 200.59375 70.296875 178.269531 70.296875 C 176.589844 70.296875 175.230469 68.9375 175.230469 67.253906 C 175.230469 65.574219 176.589844 64.210938 178.269531 64.210938 C 203.949219 64.210938 224.84375 85.109375 224.84375 110.796875 C 224.84375 113.316406 224.628906 115.886719 224.207031 118.4375 C 216.34375 179.242188 139.527344 224.140625 136.261719 226.023438 C 135.792969 226.292969 135.269531 226.429688 134.746094 226.429688 Z M 134.746094 226.429688"/><g clip-path="url(#d)"><path fill="#050607" d="M 65.867188 163.996094 C 64.894531 163.996094 63.9375 163.53125 63.351562 162.667969 C 53.238281 147.828125 47.152344 132.910156 45.265625 118.332031 C 44.859375 115.902344 44.648438 113.328125 44.648438 110.796875 C 44.648438 85.109375 65.539062 64.214844 91.214844 64.214844 C 92.898438 64.214844 94.257812 65.574219 94.257812 67.257812 C 94.257812 68.9375 92.898438 70.300781 91.214844 70.300781 C 68.894531 70.300781 50.730469 88.464844 50.730469 110.796875 C 50.730469 113 50.917969 115.234375 51.285156 117.445312 C 53.0625 131.171875 58.808594 145.195312 68.378906 159.238281 C 69.324219 160.628906 68.964844 162.519531 67.578125 163.46875 C 67.054688 163.824219 66.457031 163.996094 65.867188 163.996094 Z M 65.867188 163.996094"/></g><g clip-path="url(#e)"><g clip-path="url(#f)"><path fill="url(#g)" d="M 91.972656 60.148438 L 91.972656 75.765625 L 107.582031 75.765625 L 107.582031 60.148438 Z M 91.972656 60.148438"/></g></g><g clip-path="url(#h)"><g clip-path="url(#i)"><path fill="url(#j)" d="M 161.457031 60.148438 L 161.457031 75.765625 L 177.070312 75.765625 L 177.070312 60.148438 Z M 161.457031 60.148438"/></g></g><g clip-path="url(#k)"><path fill="#050607" d="M 212.917969 321.164062 C 168.136719 321.164062 131.707031 284.722656 131.707031 239.929688 L 131.707031 223.667969 C 131.707031 221.984375 133.066406 220.625 134.746094 220.625 C 136.429688 220.625 137.789062 221.984375 137.789062 223.667969 L 137.789062 239.929688 C 137.789062 281.367188 171.492188 315.078125 212.917969 315.078125 C 254.339844 315.078125 288.042969 281.367188 288.042969 239.929688 L 288.042969 223.667969 C 288.042969 221.984375 289.402344 220.625 291.085938 220.625 C 292.765625 220.625 294.125 221.984375 294.125 223.667969 L 294.125 239.929688 C 294.125 284.722656 257.695312 321.164062 212.917969 321.164062 Z M 212.917969 321.164062"/></g><path fill="#050607" d="M 289.445312 226.707031 C 281.875 226.707031 275.714844 220.546875 275.714844 212.976562 C 275.714844 205.402344 281.875 199.242188 289.445312 199.242188 C 297.011719 199.242188 303.171875 205.40625 303.171875 212.976562 C 303.171875 220.546875 297.011719 226.707031 289.445312 226.707031 Z M 289.445312 205.328125 C 285.230469 205.328125 281.800781 208.761719 281.800781 212.976562 C 281.800781 217.191406 285.230469 220.621094 289.445312 220.621094 C 293.660156 220.621094 297.085938 217.191406 297.085938 212.976562 C 297.085938 208.761719 293.660156 205.328125 289.445312 205.328125 Z M 289.445312 205.328125"/><g clip-path="url(#l)"><path fill="#050607" d="M 106.382812 182.871094 C 106.378906 182.871094 106.375 182.871094 106.371094 182.871094 C 105.121094 182.867188 104 182.097656 103.546875 180.929688 L 92.574219 152.789062 L 87.28125 163.300781 C 86.765625 164.328125 85.714844 164.976562 84.566406 164.976562 L 47.691406 164.976562 C 46.007812 164.976562 44.648438 163.613281 44.648438 161.933594 C 44.648438 160.25 46.007812 158.890625 47.691406 158.890625 L 82.691406 158.890625 L 90.210938 143.949219 C 90.753906 142.878906 91.882812 142.222656 93.074219 142.28125 C 94.273438 142.335938 95.328125 143.09375 95.765625 144.214844 L 106.410156 171.519531 L 120.484375 136.140625 C 120.945312 134.984375 122.066406 134.222656 123.3125 134.222656 C 123.320312 134.222656 123.328125 134.222656 123.335938 134.222656 C 124.59375 134.234375 125.710938 135.011719 126.15625 136.1875 L 135.097656 159.769531 L 161.5625 159.765625 C 163.238281 159.765625 164.601562 161.128906 164.601562 162.808594 C 164.601562 164.488281 163.242188 165.851562 161.5625 165.851562 L 133 165.855469 C 131.734375 165.855469 130.601562 165.074219 130.15625 163.890625 L 123.246094 145.667969 L 109.210938 180.949219 C 108.746094 182.109375 107.625 182.871094 106.382812 182.871094 Z M 106.382812 182.871094"/></g></svg>